<?xml version="1.0" encoding="UTF-8"?><svg id="Layer_1" xmlns="http://www.w3.org/2000/svg" viewBox="0 0 50.31 19.56"><defs><style>.cls-1{fill:#e0e31c;}.cls-2{fill:#231f20;}.cls-2,.cls-3{stroke:#e0e31c;stroke-miterlimit:10;stroke-width:.25px;}.cls-3{fill:none;}</style></defs><path class="cls-1" d="M10.03,8.64c.36,.49,.54,1.19,.54,2.09v4.88h-2.39v-4.53c0-.32-.07-.58-.2-.78s-.32-.29-.56-.29c-.28,0-.51,.11-.68,.34s-.26,.51-.26,.84v4.42h-2.39v-4.53c0-.32-.07-.58-.2-.78-.13-.19-.32-.29-.56-.29-.28,0-.51,.11-.68,.34-.18,.23-.26,.51-.26,.84v4.42H0v-7.53H1.96l.16,1.13c.24-.4,.56-.72,.95-.95s.81-.35,1.25-.35c.95,0,1.59,.43,1.92,1.3,.25-.4,.57-.72,.95-.95,.39-.23,.79-.35,1.22-.35,.72,0,1.26,.25,1.62,.73Z"/><path class="cls-1" d="M17.93,8.88c.61,.65,.92,1.64,.92,2.97v.48h-4.75c0,.54,.1,.95,.31,1.23s.53,.41,.97,.41c.4,0,.69-.1,.88-.3s.28-.47,.28-.8h2.32c0,.91-.29,1.63-.88,2.14-.58,.51-1.44,.77-2.56,.77-1.18,0-2.09-.33-2.74-.98-.65-.65-.97-1.64-.97-2.96s.32-2.27,.95-2.94c.63-.67,1.5-1,2.62-1s2.05,.32,2.66,.97Zm-3.82,2.11h2.33c0-.39-.09-.7-.28-.93s-.45-.34-.79-.34c-.75,0-1.17,.42-1.26,1.27Z"/><path class="cls-1" d="M25.94,8.88c.61,.65,.92,1.64,.92,2.97v.48h-4.75c0,.54,.1,.95,.31,1.23s.53,.41,.97,.41c.4,0,.69-.1,.88-.3s.28-.47,.28-.8h2.32c0,.91-.29,1.63-.88,2.14-.58,.51-1.44,.77-2.56,.77-1.18,0-2.09-.33-2.74-.98-.65-.65-.97-1.64-.97-2.96s.32-2.27,.95-2.94c.63-.67,1.5-1,2.62-1s2.05,.32,2.66,.97Zm-3.82,2.11h2.33c0-.39-.09-.7-.28-.93s-.45-.34-.79-.34c-.75,0-1.17,.42-1.26,1.27Z"/><path class="cls-1" d="M32.23,8.08v1.92h-1.34v2.87c0,.34,.05,.59,.14,.75,.1,.16,.27,.24,.53,.24h.67v1.67c-.19,.08-.44,.14-.74,.19-.3,.05-.57,.07-.79,.07-.7,0-1.25-.15-1.63-.46-.38-.3-.57-.82-.57-1.55v-3.76h-.89v-1.92h.98l.52-2.28h1.78v2.28h1.34Z"/><path class="cls-3" d="M49.49,8.9c.46,.67,.7,1.65,.7,2.95s-.23,2.27-.7,2.93-1.12,.99-1.98,.99c-.74,0-1.33-.29-1.78-.86v3.49h-2.39V8.08h1.94l.2,1.07c.46-.83,1.14-1.24,2.02-1.24s1.52,.33,1.98,1Zm-3.52,1.54c-.18,.29-.26,.68-.26,1.16v.47c0,.48,.09,.86,.26,1.16,.18,.3,.44,.45,.79,.45,.69,0,1.03-.49,1.03-1.47v-.76c0-.97-.34-1.45-1.03-1.45-.35,0-.62,.15-.79,.44Z"/><circle class="cls-1" cx="1.8" cy="18.43" r="1.14"/><circle class="cls-1" cx="39.35" cy="18.43" r="1.14"/><line class="cls-2" x1="1.38" y1="18.43" x2="39.65" y2="18.43"/><path class="cls-3" d="M43.38,4.6L40.34,.22l-3.04,4.38h1.79v7.01c0,.54-.13,.98-.39,1.31-.26,.33-.63,.5-1.11,.5s-.85-.16-1.11-.49c-.25-.33-.38-.77-.38-1.32V5.8h-2.72v5.86c0,1.34,.37,2.36,1.1,3.07,.73,.7,1.77,1.06,3.12,1.06s2.38-.35,3.11-1.06c.73-.7,1.09-1.73,1.09-3.07V4.6h1.58Z"/></svg>